<svg width="24" height="24" viewBox="0 0 24 24" fill="none" xmlns="http://www.w3.org/2000/svg">
<path d="M14.8278 19.2706L9.22129 23.7882C8.65571 24.2588 7.77047 23.8588 7.77047 23.1529L7.72129 19.2706H5.63112H3.71309C1.6721 19.2706 0.0245637 17.6941 0.0245637 15.7412V3.52941C-2.64473e-05 1.57647 1.64751 0 3.6885 0H20.2869C22.3278 0 23.9754 1.57647 23.9754 3.52941V15.7176C23.9754 17.6706 22.3278 19.2471 20.2869 19.2471H19.2541H14.8033L14.8278 19.2706Z" fill="#006CFE"/>
<path d="M12 6.2354C12.8691 6.2354 13.5738 5.56119 13.5738 4.72952C13.5738 3.89784 12.8691 3.22363 12 3.22363C11.1308 3.22363 10.4262 3.89784 10.4262 4.72952C10.4262 5.56119 11.1308 6.2354 12 6.2354Z" fill="white"/>
<path d="M13.3033 12.4473V8.94139C13.3033 8.25904 12.7131 7.69434 12 7.69434H10.7705C10.0574 7.69434 9.4672 8.25904 9.4672 8.94139C9.4672 9.62375 10.0082 10.1414 10.6967 10.1885V12.4473C9.9836 12.4473 9.39343 13.012 9.39343 13.6943C9.39343 14.3767 9.9836 14.9414 10.6967 14.9414H13.3033C14.0164 14.9414 14.6065 14.3767 14.6065 13.6943C14.6065 13.012 14.0164 12.4473 13.3033 12.4473Z" fill="white"/>
</svg>
