<svg width="24" height="24" viewBox="0 0 24 24" fill="none" xmlns="http://www.w3.org/2000/svg">
<path fill-rule="evenodd" clip-rule="evenodd" d="M14.828 19.2706L9.22141 23.7882C8.65583 24.2588 7.77059 23.8588 7.77059 23.1529L7.72141 19.2706H5.63124H3.71321C1.67223 19.2706 0.0246858 17.6941 0.0246858 15.7412V3.52941C9.56235e-05 1.57647 1.64764 0 3.68862 0H20.287C22.328 0 23.9755 1.57647 23.9755 3.52941V15.7176C23.9755 17.6706 22.328 19.2471 20.287 19.2471H19.2542H14.8034L14.828 19.2706ZM12.0001 6.2354C12.8693 6.2354 13.5739 5.56119 13.5739 4.72952C13.5739 3.89784 12.8693 3.22363 12.0001 3.22363C11.1309 3.22363 10.4263 3.89784 10.4263 4.72952C10.4263 5.56119 11.1309 6.2354 12.0001 6.2354ZM13.3034 8.94128V12.4472C14.0165 12.4472 14.6067 13.0119 14.6067 13.6942C14.6067 14.3766 14.0165 14.9413 13.3034 14.9413H10.6968C9.98372 14.9413 9.39355 14.3766 9.39355 13.6942C9.39355 13.0119 9.98372 12.4472 10.6968 12.4472V10.1883C10.0083 10.1413 9.46732 9.62363 9.46732 8.94128C9.46732 8.25893 10.0575 7.69422 10.7706 7.69422H12.0001C12.7132 7.69422 13.3034 8.25893 13.3034 8.94128Z" fill="white"/>
</svg>
