<svg width="16" height="16" viewBox="0 0 16 16" fill="none" xmlns="http://www.w3.org/2000/svg">
<path d="M13 3.76114e-07H1.93496C0.869919 3.76114e-07 0 0.856857 0 1.90591V7.23924C0 8.28829 0.869919 9.14514 1.93496 9.14514H4.00813L6.99187 15.7758C7.05691 15.9119 7.19512 16 7.34146 16C8.8374 16 10.0488 14.8068 10.0488 13.3333V10.6667H14.0407C14.1382 10.6667 14.2439 10.6667 14.3496 10.6426C14.8618 10.5706 15.3089 10.2983 15.6179 9.88989C15.9268 9.48148 16.0488 8.97698 15.9756 8.47247L14.9106 1.61762C14.7642 0.688689 13.9512 3.76114e-07 13 3.76114e-07ZM4.64228 0.76076H12.9837C13.561 0.792792 14.065 1.16917 14.1463 1.72973L15.2114 8.58458C15.2602 8.88889 15.1789 9.18519 15 9.43343C14.813 9.68168 14.5447 9.84184 14.2439 9.88188C14.1789 9.88989 14.122 9.88989 14.0569 9.8979H9.6748C9.46341 9.8979 9.28455 10.0661 9.28455 10.2823V13.3333C9.28455 14.3023 8.54472 15.1031 7.5935 15.2232L4.64228 8.68068V0.76076ZM1.93496 8.38438C1.29268 8.38438 0.772358 7.87187 0.772358 7.23924V1.90591C0.772358 1.27327 1.29268 0.76076 1.93496 0.76076H3.86992V8.37638H1.93496V8.38438Z" fill="#222222"/>
</svg>
