<svg width="16" height="16" viewBox="0 0 16 16" fill="none" xmlns="http://www.w3.org/2000/svg">
<path d="M15.1347 4.17809H11.2889V0.864433C11.2889 0.384192 10.9044 0 10.4236 0H0.865298C0.384577 0 0 0.392196 0 0.864433V10.9575C0 11.4377 0.384577 11.8219 0.865298 11.8219H4.71107V15.1356C4.71107 15.6158 5.09564 16 5.57636 16H15.1347C15.6154 16 16 15.6078 16 15.1356V5.05053C16 4.57029 15.6154 4.1861 15.1347 4.1861V4.17809ZM0.865298 11.0215C0.865298 11.0215 0.801202 10.9895 0.801202 10.9575V0.864433C0.801202 0.864433 0.83325 0.800401 0.865298 0.800401H10.4236C10.4236 0.800401 10.4877 0.832417 10.4877 0.864433V4.17809H5.56835C5.08763 4.17809 4.70305 4.57029 4.70305 5.04252V11.0215H0.865298ZM15.2068 15.1436C15.2068 15.1436 15.1748 15.2076 15.1427 15.2076H5.57636C5.57636 15.2076 5.51227 15.1756 5.51227 15.1436V5.05053C5.51227 5.05053 5.54432 4.9865 5.57636 4.9865H15.1347C15.1347 4.9865 15.1988 5.01851 15.1988 5.05053V15.1436H15.2068Z" fill="#222222"/>
</svg>
