<svg width="12" height="13" viewBox="0 0 12 13" fill="none" xmlns="http://www.w3.org/2000/svg">
<path d="M10.4925 3.18006H8.40918V2.02622C8.40918 1.81468 8.22168 1.6416 7.99251 1.6416H3.82585C3.59668 1.6416 3.40918 1.81468 3.40918 2.02622V3.18006H1.32585C1.09668 3.18006 0.90918 3.35314 0.90918 3.56468C0.90918 3.77622 1.09668 3.94929 1.32585 3.94929H2.15918V11.257C2.15918 11.4685 2.34668 11.6416 2.57585 11.6416H9.24251C9.47168 11.6416 9.65918 11.4685 9.65918 11.257V3.94929H10.4925C10.7217 3.94929 10.9092 3.77622 10.9092 3.56468C10.9092 3.35314 10.7217 3.18006 10.4925 3.18006ZM4.24251 2.41083H7.57585V3.18006H4.24251V2.41083ZM8.82585 10.8724H2.99251V3.94929H8.82585V10.8724Z" fill="black"/>
<path d="M4.65934 9.23734C4.88851 9.23734 5.07601 9.06427 5.07601 8.85273V5.96811C5.07601 5.75657 4.88851 5.5835 4.65934 5.5835C4.43018 5.5835 4.24268 5.75657 4.24268 5.96811V8.85273C4.24268 9.06427 4.43018 9.23734 4.65934 9.23734Z" fill="black"/>
<path d="M7.15885 9.23734C7.38802 9.23734 7.57552 9.06427 7.57552 8.85273V5.96811C7.57552 5.75657 7.38802 5.5835 7.15885 5.5835C6.92969 5.5835 6.74219 5.75657 6.74219 5.96811V8.85273C6.74219 9.06427 6.92969 9.23734 7.15885 9.23734Z" fill="black"/>
</svg>
