<svg width="21" height="20" viewBox="0 0 21 20" fill="none" xmlns="http://www.w3.org/2000/svg">
<path d="M5.98545 12.5721L6.91939 11.3345C8.36426 9.41758 10.8612 8.2852 13.5614 8.2852C13.5889 8.2852 13.6136 8.2852 13.641 8.2852V10.2642C13.641 10.5365 13.7976 10.7845 14.0476 10.9032C14.2948 11.0218 14.5915 10.9948 14.8112 10.8277L20.7198 6.34667C20.8983 6.21186 21.0027 6.00426 21.0027 5.78318C21.0027 5.56209 20.8983 5.35449 20.7198 5.21968L14.8112 0.738689C14.5915 0.571528 14.2975 0.544567 14.0476 0.663197C13.8004 0.781828 13.641 1.02987 13.641 1.30218V3.42405L12.6631 3.53729C9.0345 3.96058 6.03489 6.15255 5.01854 9.121L4.17525 11.588C4.00769 11.9897 4.1313 12.4373 4.49114 12.7123C4.68892 12.8633 4.9279 12.9387 5.16962 12.9387C5.41684 12.9387 5.66132 12.8579 5.85909 12.7015C5.90579 12.6637 5.94974 12.6206 5.98545 12.5721Z" fill="#006CFE"/>
<path d="M16.3275 20H3.72479C1.67011 20 0 18.3607 0 16.344V3.65597C0 1.63926 1.67011 0 3.72479 0H7.50177C8.03192 0 8.46318 0.423295 8.46318 0.943651C8.46318 1.46401 8.03192 1.8873 7.50177 1.8873H3.72479C2.73041 1.8873 1.92283 2.67997 1.92283 3.65597V16.344C1.92283 17.32 2.73041 18.1127 3.72479 18.1127H16.3275C17.3219 18.1127 18.1295 17.32 18.1295 16.344V11.979C18.1295 11.4586 18.5608 11.0353 19.0909 11.0353C19.6211 11.0353 20.0523 11.4586 20.0523 11.979V16.344C20.0523 18.3607 18.3822 20 16.3275 20Z" fill="#006CFE"/>
</svg>
