<svg width="19" height="20" viewBox="0 0 19 20" fill="none" xmlns="http://www.w3.org/2000/svg">
<path d="M6.19951 20C4.61451 20 3.01947 19.3991 1.81567 18.1873C-0.601967 15.7737 -0.601967 11.8378 1.81567 9.42414L9.96139 1.29194C10.794 0.450676 11.9075 0 13.0913 0C14.275 0 15.3885 0.460691 16.2212 1.29194C17.0538 2.12318 17.5152 3.23485 17.5152 4.41663C17.5152 5.5984 17.0538 6.71007 16.2212 7.54131L8.0654 15.6735C7.06224 16.675 5.30669 16.675 4.30352 15.6735C3.27026 14.642 3.27026 12.9494 4.30352 11.9179L11.8273 4.41663C12.1784 4.07611 12.7301 4.07611 13.0812 4.41663C13.4223 4.76715 13.4223 5.31798 13.0812 5.6685L5.55748 13.1698C5.21641 13.5103 5.21641 14.0711 5.55748 14.4216C5.88853 14.7521 6.4804 14.7521 6.81144 14.4216L14.9772 6.29945C15.4788 5.7987 15.7597 5.12769 15.7597 4.41663C15.7597 3.70556 15.4788 3.04457 14.9772 2.54382C13.9741 1.54231 12.2185 1.54231 11.2154 2.54382L3.06963 10.676C1.34418 12.3986 1.34418 15.2128 3.06963 16.9354C4.79508 18.658 7.61398 18.658 9.33943 16.9354L17.4851 8.8032C17.8363 8.45268 18.388 8.45268 18.7391 8.8032C19.0902 9.15373 19.0902 9.70456 18.7391 10.0551L10.5934 18.1873C9.37955 19.3991 7.79455 20 6.20954 20H6.19951Z" fill="#AAB2BD"/>
</svg>
