<svg width="27" height="29" viewBox="0 0 27 29" fill="none" xmlns="http://www.w3.org/2000/svg">
<g clip-path="url(#clip0_240_284)">
<path d="M21.0036 26.2462C20.9995 26.2506 20.9937 26.2531 20.9877 26.2531H2.24141C1.00477 26.2531 0 25.0914 0 23.6565V2.59661C0 1.16164 1.00477 0 2.24141 0H21.01C22.2467 0 23.2514 1.16164 23.2514 2.59661V23.6428C23.2514 25.0741 22.2518 26.2335 21.0195 26.2394C21.0135 26.2394 21.0077 26.2419 21.0036 26.2462Z" fill="#D7DFFF"/>
<path d="M25.7505 19.9256L26.678 20.1579C27.1031 20.2672 27.1031 20.9096 26.678 21.0189L25.7505 21.2512C22.7619 22.0165 20.4175 24.5038 19.6961 27.6744L19.4771 28.6584C19.374 29.1094 18.7686 29.1094 18.6656 28.6584L18.4466 27.6744C17.7252 24.5038 15.3807 22.0165 12.3922 21.2512L11.4647 21.0189C11.0396 20.9096 11.0396 20.2672 11.4647 20.1579L12.3922 19.9256C15.3807 19.1603 17.7252 16.673 18.4466 13.5024L18.6656 12.5184C18.7686 12.0674 19.374 12.0674 19.4771 12.5184L19.6961 13.5024C20.4175 16.673 22.7619 19.1603 25.7505 19.9256Z" fill="#636DBD"/>
<path d="M18.6913 7.05163H4.5472C3.83871 7.05163 3.25903 6.43664 3.25903 5.68499C3.25903 4.93334 3.83871 4.31836 4.5472 4.31836H18.6913C19.3998 4.31836 19.9795 4.93334 19.9795 5.68499C19.9795 6.43664 19.3998 7.05163 18.6913 7.05163Z" fill="white"/>
<path d="M11.1297 12.4774H4.5472C3.83871 12.4774 3.25903 11.8624 3.25903 11.1108C3.25903 10.3591 3.83871 9.74414 4.5472 9.74414H11.1297C11.8382 9.74414 12.4179 10.3591 12.4179 11.1108C12.4179 11.8624 11.8382 12.4774 11.1297 12.4774Z" fill="white"/>
</g>
<defs>
<clipPath id="clip0_240_284">
<rect width="27" height="29" fill="white"/>
</clipPath>
</defs>
</svg>
