<svg width="26" height="27" viewBox="0 0 26 27" fill="none" xmlns="http://www.w3.org/2000/svg">
<path d="M9.94667 21.6241L16.0267 26.6997C16.64 27.2284 17.6 26.779 17.6 25.9859L17.6533 21.6241H22C24.2133 21.6241 26 19.8529 26 17.6588V3.9653C26 1.77117 24.2133 0 22 0H4C1.78667 0 0 1.77117 0 3.9653V17.6588C0 19.8529 1.78667 21.6241 4 21.6241H9.94667Z" fill="#9DF1B6"/>
<path d="M18.8533 13.6971L19.5227 14.3275C19.8283 14.6188 19.5362 15.1247 19.1312 15.0057L18.2505 14.7412C15.405 13.9022 12.3147 14.7302 10.27 16.8796L9.63947 17.549C9.34825 17.8545 8.84231 17.5624 8.96129 17.1575L9.22577 16.2768C10.0648 13.4313 9.23678 10.341 7.0874 8.29624L6.41799 7.66575C6.11247 7.37454 6.40458 6.86859 6.80953 6.98757L7.69026 7.25205C10.5357 8.09112 13.6261 7.26307 15.6708 5.11368L16.3013 4.44427C16.5925 4.13875 17.0984 4.43086 16.9794 4.83582L16.715 5.71654C15.8759 8.56201 16.704 11.6523 18.8533 13.6971Z" fill="#00C18A"/>
</svg>
