<svg width="16" height="16" viewBox="0 0 16 16" fill="none" xmlns="http://www.w3.org/2000/svg">
<path d="M13 16H1.93496C0.869919 16 0 15.1431 0 14.0941V8.76076C0 7.71171 0.869919 6.85486 1.93496 6.85486H4.00813L6.99187 0.224224C7.05691 0.0880881 7.19512 0 7.34146 0C8.8374 0 10.0488 1.19319 10.0488 2.66667V5.33333H14.0407C14.1382 5.33333 14.2439 5.33333 14.3496 5.35736C14.8618 5.42943 15.3089 5.7017 15.6179 6.11011C15.9268 6.51852 16.0488 7.02302 15.9756 7.52753L14.9106 14.3824C14.7642 15.3113 13.9512 16 13 16ZM4.64228 15.2392H12.9837C13.561 15.2072 14.065 14.8308 14.1463 14.2703L15.2114 7.41542C15.2602 7.11111 15.1789 6.81481 15 6.56657C14.813 6.31832 14.5447 6.15816 14.2439 6.11812C14.1789 6.11011 14.122 6.11011 14.0569 6.1021H9.6748C9.46341 6.1021 9.28455 5.93393 9.28455 5.71772V2.66667C9.28455 1.6977 8.54472 0.896897 7.5935 0.776777L4.64228 7.31932V15.2392ZM1.93496 7.61562C1.29268 7.61562 0.772358 8.12813 0.772358 8.76076V14.0941C0.772358 14.7267 1.29268 15.2392 1.93496 15.2392H3.86992V7.62362H1.93496V7.61562Z" fill="#222222"/>
</svg>
