<svg width="24" height="24" viewBox="0 0 24 24" fill="none" xmlns="http://www.w3.org/2000/svg">
<path d="M12 24C18.6274 24 24 18.6274 24 12C24 5.37258 18.6274 0 12 0C5.37258 0 0 5.37258 0 12C0 18.6274 5.37258 24 12 24Z" fill="#006CFE"/>
<path d="M12 12.5675C14.3658 12.5675 16.2837 10.6496 16.2837 8.28373C16.2837 5.91789 14.3658 4 12 4C9.63417 4 7.71628 5.91789 7.71628 8.28373C7.71628 10.6496 9.63417 12.5675 12 12.5675Z" fill="white"/>
<path d="M12 22.1228C14.7156 22.1228 17.1698 21.0264 18.9547 19.2542C19.3754 18.8399 19.4455 18.1769 19.1204 17.6797C17.5905 15.3785 14.9705 13.8613 12 13.8613C9.02943 13.8613 6.40947 15.3785 4.87957 17.6797C4.55446 18.1706 4.62458 18.8335 5.04531 19.2542C6.83019 21.0264 9.28441 22.1228 12 22.1228Z" fill="white"/>
</svg>
