<svg width="70" height="18" viewBox="0 0 70 18" fill="none" xmlns="http://www.w3.org/2000/svg">
<path d="M3.10547 2.75V4.43457H5.56641V2.75H7.66113V9.32715H1.02539V2.75H3.10547ZM3.10547 7.65723H5.56641V6.06055H3.10547V7.65723ZM11.6455 10.5576V15.4062H9.53613V12.2129H2.3584V10.5576H11.6455ZM11.6455 1.95898V9.95703H9.53613V1.95898H11.6455ZM20.332 3.21875C20.332 7.45215 19.4238 10.8652 14.3408 13.4287L13.1982 11.8467C15.3369 10.7773 16.6113 9.61279 17.3584 8.22852L13.5938 8.58008L13.3594 6.77832L17.9883 6.51465C18.1128 6.00928 18.186 5.46729 18.2373 4.88867H14.0771V3.21875H20.332ZM23.9795 1.95898V7.0127H25.7812V8.74121H23.9795V15.3623H21.8701V1.95898H23.9795ZM37.5732 1.97363V11.583H35.4639V1.97363H37.5732ZM37.9102 13.502V15.1865H28.4619V10.6162H30.6006V13.502H37.9102ZM30.1758 2.80859C32.2559 2.80859 33.8965 4.24414 33.8965 6.22168C33.8965 8.24316 32.2559 9.66406 30.1758 9.66406C28.0957 9.66406 26.4404 8.24316 26.4551 6.22168C26.4404 4.24414 28.0957 2.80859 30.1758 2.80859ZM30.1758 4.63965C29.2236 4.625 28.5059 5.21094 28.5059 6.22168C28.5059 7.27637 29.2236 7.83301 30.1758 7.83301C31.084 7.83301 31.8018 7.27637 31.8018 6.22168C31.8018 5.21094 31.084 4.625 30.1758 4.63965ZM51.5332 12.125V13.8389H39.2432V12.125H51.5332ZM50.4492 3.04297V4.71289H46.4941C46.5674 6.44873 47.9736 8.08203 51.123 8.55078L50.3027 10.2207C47.8931 9.81055 46.2378 8.71191 45.3809 7.20312C44.5386 8.74854 42.9053 9.89844 40.5322 10.3086L39.7119 8.60938C42.7515 8.15527 44.1504 6.44873 44.2529 4.71289H40.2686V3.04297H50.4492Z" fill="white"/>
<path d="M69.9803 6.84439C69.6722 2.74377 65.8503 -0.309121 61.4444 0.0261497C57.0385 0.36142 53.7107 3.95268 54.0188 8.0533C54.1664 10.0166 55.1195 11.738 56.5603 12.9663C56.4993 13.4241 56.3164 14.0849 55.7677 14.5975C55.5591 14.7942 55.7067 15.1456 55.9891 15.1713C56.8684 15.2519 58.2162 15.2036 59.9715 14.6749C60.793 14.8651 61.6626 14.9392 62.5579 14.8715C66.9671 14.5395 70.2884 10.945 69.9835 6.84439H69.9803Z" fill="white"/>
<path d="M57.7285 10.0423L59.8336 4.47168H61.7686L63.8673 10.0423H62.3013L61.8809 8.84954H59.7245L59.3041 10.0423H57.7285ZM61.528 7.84695L60.8252 5.845H60.7738L60.0711 7.84695H61.5247H61.528Z" fill="#00579B"/>
<path d="M66.0689 10.0423H64.6152V4.47168H66.0689V10.0423Z" fill="#00579B"/>
</svg>
