<svg width="16" height="16" viewBox="0 0 16 16" fill="none" xmlns="http://www.w3.org/2000/svg">
<path d="M14.5265 6.15104H12.9424V1.43302C12.9424 0.643643 12.2916 0 11.4935 0H1.09286C0.491174 0 0 0.485768 0 1.08083V13.6258C0 14.9374 1.07444 16 2.40061 16H13.5994C14.9256 16 16 14.9374 16 13.6258V7.61442C16 6.80683 15.3369 6.15712 14.5265 6.15712V6.15104Z" fill="#B0B8C1"/>
<path d="M12.9424 7.3291H14.2808C14.5755 7.3291 14.815 7.56591 14.815 7.85737V13.9113C14.815 14.4213 14.3975 14.8342 13.8818 14.8342C13.366 14.8342 12.9485 14.4213 12.9485 13.9113V7.33517L12.9424 7.3291Z" fill="white"/>
<path d="M10.3636 1.62671H2.57233C2.03996 1.62671 1.6084 2.05353 1.6084 2.58003V6.97623C1.6084 7.50274 2.03996 7.92955 2.57233 7.92955H10.3636C10.8959 7.92955 11.3275 7.50274 11.3275 6.97623V2.58003C11.3275 2.05353 10.8959 1.62671 10.3636 1.62671Z" fill="white"/>
<path d="M10.7135 9.07202H2.22237C1.88328 9.07202 1.6084 9.34388 1.6084 9.67923C1.6084 10.0146 1.88328 10.2864 2.22237 10.2864H10.7135C11.0526 10.2864 11.3275 10.0146 11.3275 9.67923C11.3275 9.34388 11.0526 9.07202 10.7135 9.07202Z" fill="white"/>
<path d="M7.41653 11.428H2.22237C1.88328 11.428 1.6084 11.6998 1.6084 12.0352C1.6084 12.3705 1.88328 12.6424 2.22237 12.6424H7.41653C7.75562 12.6424 8.0305 12.3705 8.0305 12.0352C8.0305 11.6998 7.75562 11.428 7.41653 11.428Z" fill="white"/>
</svg>
