<svg width="24" height="24" viewBox="0 0 24 24" fill="none" xmlns="http://www.w3.org/2000/svg">
<g clip-path="url(#clip0_242_995)">
<path d="M12 24C18.6274 24 24 18.6274 24 12C24 5.37258 18.6274 0 12 0C5.37258 0 0 5.37258 0 12C0 18.6274 5.37258 24 12 24Z" fill="#006CFE"/>
<path fill-rule="evenodd" clip-rule="evenodd" d="M13.9043 14.2176C13.4873 14.8127 12.7963 15.2018 12.0145 15.2018C10.7409 15.2018 9.7085 14.1694 9.7085 12.8958C9.7085 12.0391 10.1757 11.2916 10.8691 10.8939V5.39057C10.8691 4.80306 11.3538 4.31836 11.9414 4.31836C12.5289 4.31836 13.0136 4.80306 13.0136 5.39057V10.8169C13.3605 10.984 13.6593 11.2353 13.8832 11.5444H17.5078C18.2422 11.5444 18.8444 12.1466 18.8444 12.881C18.8444 13.6154 18.2422 14.2176 17.5078 14.2176H13.9043Z" fill="white"/>
</g>
<defs>
<clipPath id="clip0_242_995">
<rect width="24" height="24" fill="white"/>
</clipPath>
</defs>
</svg>
