<svg width="24" height="24" viewBox="0 0 24 24" fill="none" xmlns="http://www.w3.org/2000/svg">
<path fill-rule="evenodd" clip-rule="evenodd" d="M24 12C24 18.6274 18.6274 24 12 24C5.37258 24 0 18.6274 0 12C0 5.37258 5.37258 0 12 0C18.6274 0 24 5.37258 24 12ZM12.0145 15.2018C12.7963 15.2018 13.4873 14.8127 13.9043 14.2176H17.5078C18.2422 14.2176 18.8444 13.6154 18.8444 12.881C18.8444 12.1466 18.2422 11.5444 17.5078 11.5444H13.8832C13.6593 11.2353 13.3605 10.984 13.0136 10.8169V5.39057C13.0136 4.80306 12.5289 4.31836 11.9414 4.31836C11.3538 4.31836 10.8691 4.80306 10.8691 5.39057V10.8939C10.1757 11.2916 9.7085 12.0391 9.7085 12.8958C9.7085 14.1694 10.7409 15.2018 12.0145 15.2018Z" fill="white"/>
</svg>
