<svg width="24" height="24" viewBox="0 0 24 24" fill="none" xmlns="http://www.w3.org/2000/svg">
<path d="M20.3986 11.5801C19.8036 11.5801 19.3235 12.0602 19.3235 12.6552C19.3235 16.7887 15.9519 20.1602 11.8184 20.1602C9.27155 20.1602 6.92297 18.8868 5.5347 16.7574C5.21112 16.2668 4.54308 16.1207 4.05249 16.4442C3.56189 16.7678 3.41576 17.4359 3.73934 17.9265C5.5347 20.6612 8.55131 22.3 11.8184 22.3C17.1419 22.3 21.4633 17.9682 21.4633 12.6552C21.4633 12.0602 20.9831 11.5801 20.3881 11.5801H20.3986Z" fill="#79808D"/>
<path d="M20.597 10.7764C20.3778 10.7764 20.169 10.839 19.9916 10.9643L16.7662 13.198C16.2756 13.532 16.1608 14.2001 16.4948 14.6907C16.8288 15.1813 17.4969 15.2961 17.9875 14.9621L20.3256 13.3441L21.8705 15.5779C22.2045 16.0685 22.8725 16.1833 23.3631 15.8493C23.8537 15.5153 23.9685 14.8472 23.6345 14.3566L21.4738 11.2461C21.3068 11.0164 21.0667 10.8494 20.7849 10.7972C20.7223 10.7868 20.6596 10.7764 20.597 10.7764Z" fill="#79808D"/>
<path d="M11.8496 3C6.52616 3 2.19434 7.33182 2.19434 12.6448C2.19434 13.2398 2.67449 13.7199 3.26946 13.7199C3.86444 13.7199 4.34459 13.2398 4.34459 12.6448C4.34459 8.51133 7.7161 5.13981 11.8496 5.13981C14.3965 5.13981 16.7451 6.41326 18.1333 8.54264C18.4569 9.03323 19.125 9.17937 19.6156 8.85578C20.1061 8.5322 20.2523 7.86416 19.9287 7.37357C18.1333 4.63878 15.1167 3 11.8496 3Z" fill="#79808D"/>
<path d="M1.06718 9.22138C0.858416 9.22138 0.639215 9.284 0.461767 9.40926C-0.0288245 9.74328 -0.143644 10.4113 0.190376 10.9019L2.35107 14.0125C2.68509 14.5031 3.35313 14.6179 3.84372 14.2839L7.0691 12.0501C7.55969 11.7161 7.67451 11.048 7.34049 10.5575C7.00647 10.0669 6.33843 9.95204 5.84784 10.2861L3.5097 11.904L1.96486 9.67021C1.75609 9.36751 1.42207 9.21094 1.07762 9.21094L1.06718 9.22138Z" fill="#79808D"/>
</svg>
